GRFsquat.mot
version=1
nRows=15
nColumns=37
inDegrees=yes
endheader
time	ground_force_calcn_l_vx	ground_force_calcn_l_vy	ground_force_calcn_l_vz	ground_force_calcn_l_px	ground_force_calcn_l_py	ground_force_calcn_l_pz	ground_torque_calcn_l_vx	ground_torque_calcn_l_vy	ground_torque_calcn_l_vz	ground_force_calcn_r_vx	ground_force_calcn_r_vy	ground_force_calcn_r_vz	ground_force_calcn_r_px	ground_force_calcn_r_py	ground_force_calcn_r_pz	ground_torque_calcn_r_vx	ground_torque_calcn_r_vy	ground_torque_calcn_r_vz	ground_force_hand_l_vx	ground_force_hand_l_vy	ground_force_hand_l_vz	ground_force_hand_l_px	ground_force_hand_l_py	ground_force_hand_l_pz	ground_torque_hand_l_vx	ground_torque_hand_l_vy	ground_torque_hand_l_vz	ground_force_hand_r_vx	ground_force_hand_r_vy	ground_force_hand_r_vz	ground_force_hand_r_px	ground_force_hand_r_py	ground_force_hand_r_pz	ground_torque_hand_r_vx	ground_torque_hand_r_vy	ground_torque_hand_r_vz
 0.499988     -13.39163      361.5712      44.56627      1.073489 -6.572976e-17    -0.4799733             0    -0.3110742             0     -15.02634      313.5556     -42.64393       1.06644 -6.505213e-17  -0.000953013             0   -0.09926975             0             0             0             0       1.36847     0.7972523    -0.4324324             0             0             0             0             0             0       1.41713     0.8134076    -0.1161698             0             0             0
0.5166546     -8.434352      358.4365      43.52666      1.074287 -6.570265e-17    -0.4801576             0    -0.3452836             0     -13.31745      317.0129     -42.02387      1.068781 -6.505213e-17 -5.971595e-05             0    -0.1270274             0             0             0             0      1.376926     0.8001824    -0.4220383             0             0             0             0             0             0       1.42664     0.8173476    -0.1236795             0             0             0
0.5333212     -2.396401      348.2564       40.7593      1.075266 -6.591949e-17    -0.4804671             0    -0.3761829             0     -11.61216      325.2796     -42.36958      1.070903 -6.591949e-17   0.000476299             0    -0.1555034             0             0             0             0      1.385483     0.8019796    -0.4127574             0             0             0             0             0             0      1.435833     0.8208917    -0.1307526             0             0             0
0.5499878      3.804026       331.737      36.62336       1.07638 -6.591949e-17    -0.4808711             0    -0.4027777             0     -10.65726      338.5832     -44.02974      1.072437 -6.591949e-17   0.000605181             0    -0.1811657             0             0             0             0      1.394217     0.8025653    -0.4046532             0             0             0             0             0             0      1.444679     0.8240118    -0.1374742             0             0             0
0.5666544       9.13908      311.1441      31.76666      1.077574 -6.591949e-17    -0.4813225             0     -0.424397             0     -11.03998       356.187     -47.05706      1.073328 -6.591949e-17  0.0003558785             0    -0.2006504             0             0             0             0      1.403039     0.8019986    -0.3976453             0             0             0             0             0             0       1.45292     0.8267285    -0.1439024             0             0             0
 0.583321      12.69002      289.9762      27.00589      1.078827 -6.591949e-17    -0.4817936             0    -0.4406279             0     -13.00262      376.4669      -51.1602      1.073819 -6.591949e-17 -0.0001726849             0    -0.2113665             0             0             0             0      1.411755     0.8004106    -0.3915394             0             0             0             0             0             0      1.460135     0.8290509    -0.1500346             0             0             0
0.5999876      13.85557      272.2598      23.16343      1.080151 -6.591949e-17    -0.4822857             0    -0.4511379             0     -16.34406      397.2474       -55.766      1.074197 -6.591949e-17 -0.0008678921             0    -0.2118573             0             0             0             0      1.420143     0.7979411    -0.3860667             0             0             0             0             0             0       1.46586     0.8309304    -0.1557894             0             0             0
0.6166542      12.48551      261.6548      20.89649      1.081557 -6.591949e-17    -0.4828133             0    -0.4555379             0     -20.45027      416.3073     -60.16772      1.074601 -6.591949e-17  -0.001650696             0    -0.2018922             0             0             0             0      1.427989     0.7947053    -0.3809284             0             0             0             0             0             0      1.469726     0.8322526    -0.1610226             0             0             0
0.6333208      8.897848      260.6319      20.55758         1.083 -6.591949e-17    -0.4833793             0    -0.4534318             0     -24.45081      431.8972     -63.70194      1.074999 -6.591949e-17  -0.002480568             0    -0.1823492             0             0             0             0        1.4351     0.7907922     -0.375839             0             0             0             0             0             0      1.471539     0.8328643    -0.1655777             0             0             0
0.6499874      3.777096      269.9589      22.12151      1.084372 -6.678685e-17    -0.4839552             0    -0.4446616             0     -27.45305      443.1139     -65.89451      1.075268 -6.591949e-17  -0.003331058             0    -0.1549623             0             0             0             0      1.441301     0.7862811    -0.3705716             0             0             0             0             0             0      1.471311     0.8326148    -0.1693466             0             0             0
 0.666654     -2.009056      288.6253       25.1988      1.085527 -6.678685e-17    -0.4844738             0    -0.4296101             0     -28.77801       450.032     -66.53796      1.075292 -6.591949e-17  -0.004163349             0    -0.1219874             0             0             0             0      1.446429     0.7812571    -0.3649949             0             0             0             0             0             0      1.469242     0.8313902    -0.1723143             0             0             0
0.6833206      -7.61407      314.1919      29.13211      1.086322 -6.635317e-17    -0.4848414             0    -0.4093854             0     -28.12472      453.5766     -65.69186      1.075025 -6.591949e-17  -0.004917285             0   -0.08584413             0             0             0             0      1.450342     0.7758166    -0.3590955             0             0             0             0             0             0      1.465668     0.8291312    -0.1745698             0             0             0
0.6999872      -12.3779      343.4339      33.15068      1.086666 -6.635317e-17    -0.4849656             0    -0.3857745             0     -25.61839      455.2036     -63.62225      1.074515 -6.591949e-17  -0.005524127             0   -0.04879931             0             0             0             0       1.45294     0.7700585     -0.352976             0             0             0             0             0             0      1.461009     0.8258285    -0.1762824             0             0             0
0.7166538     -15.91459      373.0797       36.5438      1.086533 -6.635317e-17    -0.4847868             0    -0.3609595             0      -21.7401      456.4939     -60.71068      1.073881 -6.591949e-17  -0.005932701             0   -0.01274829             0             0             0             0      1.454185     0.7640643    -0.3468258             0             0             0             0             0             0      1.455712     0.8215065    -0.1776549             0             0             0
0.7333204     -18.11443      400.4494      38.81146      1.085965 -6.635317e-17    -0.4842992             0    -0.3370797             0     -17.17318      458.7793     -57.36507      1.073286 -6.591949e-17   -0.00613545             0    0.02088162             0             0             0             0      1.454113     0.7578828    -0.3408726             0             0             0             0             0             0      1.450205     0.8162039    -0.1788786             0             0             0
